<mxfile host="app.diagrams.net" agent="Mozilla/5.0 (Windows NT 10.0; Win64; x64) AppleWebKit/537.36 (KHTML, like Gecko) Chrome/134.0.0.0 Safari/537.36" version="26.2.8">
  <diagram name="第 1 页" id="F0HeC-jlyTKgT6SJ4sa7">
    <mxGraphModel dx="1974" dy="1340" grid="1" gridSize="10" guides="1" tooltips="1" connect="1" arrows="1" fold="1" page="0" pageScale="1" pageWidth="827" pageHeight="1169" math="0" shadow="0">
      <root>
        <mxCell id="0" />
        <mxCell id="1" parent="0" />
        <mxCell id="30Qa5ZZo97OTwOvahQVW-1" value="&lt;font style=&quot;font-size: 24px;&quot;&gt;基于图神经网络的时序知识图谱推理&lt;/font&gt;" style="rounded=0;whiteSpace=wrap;html=1;" parent="1" vertex="1">
          <mxGeometry x="20" y="40" width="450" height="60" as="geometry" />
        </mxCell>
        <mxCell id="30Qa5ZZo97OTwOvahQVW-2" value="&lt;font style=&quot;font-size: 24px;&quot;&gt;研究&lt;/font&gt;&lt;div&gt;&lt;font style=&quot;font-size: 24px;&quot;&gt;内容&lt;/font&gt;&lt;/div&gt;" style="rounded=0;whiteSpace=wrap;html=1;" parent="1" vertex="1">
          <mxGeometry x="-90" y="130" width="60" height="130" as="geometry" />
        </mxCell>
        <mxCell id="30Qa5ZZo97OTwOvahQVW-3" value="&lt;span style=&quot;font-size: 24px;&quot;&gt;理论基础&lt;/span&gt;" style="rounded=0;whiteSpace=wrap;html=1;" parent="1" vertex="1">
          <mxGeometry x="-90" y="360" width="60" height="130" as="geometry" />
        </mxCell>
        <mxCell id="30Qa5ZZo97OTwOvahQVW-4" value="&lt;span style=&quot;font-size: 24px;&quot;&gt;方法设计&lt;/span&gt;" style="rounded=0;whiteSpace=wrap;html=1;" parent="1" vertex="1">
          <mxGeometry x="-90" y="590" width="60" height="130" as="geometry" />
        </mxCell>
        <mxCell id="30Qa5ZZo97OTwOvahQVW-6" value="&lt;span style=&quot;font-size: 24px;&quot;&gt;实验分析&lt;/span&gt;" style="rounded=0;whiteSpace=wrap;html=1;" parent="1" vertex="1">
          <mxGeometry x="-90" y="820" width="60" height="130" as="geometry" />
        </mxCell>
        <mxCell id="30Qa5ZZo97OTwOvahQVW-7" value="&lt;font style=&quot;font-size: 24px;&quot;&gt;研究&lt;/font&gt;&lt;div&gt;&lt;font style=&quot;font-size: 24px;&quot;&gt;总结&lt;/font&gt;&lt;/div&gt;" style="rounded=0;whiteSpace=wrap;html=1;" parent="1" vertex="1">
          <mxGeometry x="-90" y="1050" width="60" height="130" as="geometry" />
        </mxCell>
        <mxCell id="30Qa5ZZo97OTwOvahQVW-8" value="&lt;span style=&quot;font-size: 24px;&quot;&gt;研究背景与意义&lt;/span&gt;" style="rounded=0;whiteSpace=wrap;html=1;" parent="1" vertex="1">
          <mxGeometry x="40" y="150" width="210" height="70" as="geometry" />
        </mxCell>
        <mxCell id="30Qa5ZZo97OTwOvahQVW-9" value="&lt;span style=&quot;font-size: 24px;&quot;&gt;国内外研究现状&lt;/span&gt;" style="rounded=0;whiteSpace=wrap;html=1;" parent="1" vertex="1">
          <mxGeometry x="320" y="150" width="210" height="70" as="geometry" />
        </mxCell>
        <mxCell id="30Qa5ZZo97OTwOvahQVW-11" value="&lt;span style=&quot;font-size: 24px;&quot;&gt;研究目标与内容&lt;/span&gt;" style="rounded=0;whiteSpace=wrap;html=1;" parent="1" vertex="1">
          <mxGeometry x="600" y="150" width="210" height="70" as="geometry" />
        </mxCell>
        <mxCell id="30Qa5ZZo97OTwOvahQVW-12" value="&lt;span style=&quot;font-size: 24px;&quot;&gt;论文结构与安排&lt;/span&gt;" style="rounded=0;whiteSpace=wrap;html=1;" parent="1" vertex="1">
          <mxGeometry x="880" y="150" width="210" height="70" as="geometry" />
        </mxCell>
        <mxCell id="E5hLE0DacU0j17QMFrR6-11" value="&lt;span style=&quot;font-size: 24px;&quot;&gt;时序知识图谱推理&lt;/span&gt;" style="rounded=0;whiteSpace=wrap;html=1;" vertex="1" parent="1">
          <mxGeometry x="70" y="390" width="210" height="70" as="geometry" />
        </mxCell>
        <mxCell id="E5hLE0DacU0j17QMFrR6-12" value="&lt;span style=&quot;font-size: 24px;&quot;&gt;图神经网络&lt;/span&gt;" style="rounded=0;whiteSpace=wrap;html=1;" vertex="1" parent="1">
          <mxGeometry x="480" y="390" width="210" height="70" as="geometry" />
        </mxCell>
        <mxCell id="E5hLE0DacU0j17QMFrR6-13" value="&lt;span style=&quot;font-size: 24px;&quot;&gt;问题定义&lt;/span&gt;" style="rounded=0;whiteSpace=wrap;html=1;" vertex="1" parent="1">
          <mxGeometry x="110" y="590" width="210" height="70" as="geometry" />
        </mxCell>
        <mxCell id="E5hLE0DacU0j17QMFrR6-14" value="&lt;span style=&quot;font-size: 24px;&quot;&gt;RMTR模型介绍&lt;/span&gt;" style="rounded=0;whiteSpace=wrap;html=1;" vertex="1" parent="1">
          <mxGeometry x="110" y="690" width="210" height="70" as="geometry" />
        </mxCell>
        <mxCell id="E5hLE0DacU0j17QMFrR6-15" value="&lt;span style=&quot;font-size: 24px;&quot;&gt;实验分析&lt;/span&gt;" style="rounded=0;whiteSpace=wrap;html=1;" vertex="1" parent="1">
          <mxGeometry x="110" y="800" width="210" height="70" as="geometry" />
        </mxCell>
        <mxCell id="E5hLE0DacU0j17QMFrR6-16" value="&lt;span style=&quot;font-size: 24px;&quot;&gt;问题定义&lt;/span&gt;" style="rounded=0;whiteSpace=wrap;html=1;" vertex="1" parent="1">
          <mxGeometry x="500" y="590" width="210" height="70" as="geometry" />
        </mxCell>
        <mxCell id="E5hLE0DacU0j17QMFrR6-17" value="&lt;span style=&quot;font-size: 24px;&quot;&gt;TGATR模型介绍&lt;/span&gt;" style="rounded=0;whiteSpace=wrap;html=1;" vertex="1" parent="1">
          <mxGeometry x="500" y="690" width="210" height="70" as="geometry" />
        </mxCell>
        <mxCell id="E5hLE0DacU0j17QMFrR6-18" value="&lt;span style=&quot;font-size: 24px;&quot;&gt;实验分析&lt;/span&gt;" style="rounded=0;whiteSpace=wrap;html=1;" vertex="1" parent="1">
          <mxGeometry x="500" y="800" width="210" height="70" as="geometry" />
        </mxCell>
        <mxCell id="E5hLE0DacU0j17QMFrR6-19" value="&lt;span style=&quot;font-size: 24px;&quot;&gt;数&lt;/span&gt;&lt;div&gt;&lt;span style=&quot;font-size: 24px;&quot;&gt;据&lt;/span&gt;&lt;/div&gt;&lt;div&gt;&lt;span style=&quot;font-size: 24px;&quot;&gt;集&lt;/span&gt;&lt;/div&gt;&lt;div&gt;&lt;span style=&quot;font-size: 24px;&quot;&gt;与&lt;/span&gt;&lt;/div&gt;&lt;div&gt;&lt;span style=&quot;font-size: 24px;&quot;&gt;评&lt;/span&gt;&lt;/div&gt;&lt;div&gt;&lt;span style=&quot;font-size: 24px;&quot;&gt;估&lt;/span&gt;&lt;/div&gt;&lt;div&gt;&lt;span style=&quot;font-size: 24px;&quot;&gt;指&lt;/span&gt;&lt;/div&gt;&lt;div&gt;&lt;span style=&quot;font-size: 24px;&quot;&gt;标&lt;/span&gt;&lt;/div&gt;" style="rounded=0;whiteSpace=wrap;html=1;" vertex="1" parent="1">
          <mxGeometry x="60" y="1000" width="60" height="260" as="geometry" />
        </mxCell>
      </root>
    </mxGraphModel>
  </diagram>
</mxfile>
